<?xml version="1.0" encoding="utf-8"?>
<!-- Generator: Adobe Illustrator 27.7.0, SVG Export Plug-In . SVG Version: 6.00 Build 0)  -->
<svg version="1.1" id="Layer_1" xmlns="http://www.w3.org/2000/svg" xmlns:xlink="http://www.w3.org/1999/xlink" x="0px" y="0px"
	 viewBox="0 0 24 24" style="enable-background:new 0 0 24 24;" xml:space="preserve">
<style type="text/css">
	.st0{fill:#09BBC0;}
</style>
<path class="st0" d="M12,4.98c0,0-6.19,5.34-9.64,8.23C2.15,13.39,2,13.66,2,13.98c0,0.55,0.45,1,1,1h2v7c0,0.55,0.45,1,1,1h3
	c0.55,0,1-0.45,1-1v-4h4v4c0,0.55,0.45,1,1,1h3c0.55,0,1-0.45,1-1v-7h2c0.55,0,1-0.45,1-1c0-0.32-0.15-0.58-0.38-0.77
	C18.18,10.32,12,4.98,12,4.98z"/>
</svg>
