<?xml version="1.0" encoding="utf-8"?>
<!-- Generator: Adobe Illustrator 27.7.0, SVG Export Plug-In . SVG Version: 6.00 Build 0)  -->
<svg version="1.1" id="圖層_1" xmlns="http://www.w3.org/2000/svg" xmlns:xlink="http://www.w3.org/1999/xlink" x="0px" y="0px"
	 viewBox="0 0 400 400" style="enable-background:new 0 0 400 400;" xml:space="preserve">
<style type="text/css">
	.st0{fill:#D8D8D8;}
	.st1{fill:none;stroke:#09BBC0;stroke-width:24;stroke-miterlimit:10;}
</style>
<path id="path3267" class="st0" d="M185.47,107.1v20.05c-8.11,0-44.62,10.34-44.62,43.48c0,29.49,26.34,37.51,44.6,40.15l0.02,33.32
	c-13.33-3.81-15.75-14.06-17.61-22.54h-29.27c1.81,33.16,30.94,48.58,46.88,50.93v20.4h27.83V272.8
	c22.03-1.17,48.11-20.19,48.11-46.26c0-29.86-25.98-38.33-48.11-40.61v-30.54c8.71,0.62,15.5,9.26,16.24,18.05h28.98
	c0-29.62-26.95-45.2-45.51-46.28V107.1H185.47z M185.62,155.68V181C166.01,180.69,165.63,159.19,185.62,155.68z M213.62,215.55
	c24.27,0.62,26.96,24.84-0.04,28.71L213.62,215.55z"/>
<circle class="st1" cx="200" cy="200" r="149.08"/>
</svg>
