<?xml version="1.0" encoding="utf-8"?>
<!-- Generator: Adobe Illustrator 27.7.0, SVG Export Plug-In . SVG Version: 6.00 Build 0)  -->
<svg version="1.1" id="圖層_1" xmlns="http://www.w3.org/2000/svg" xmlns:xlink="http://www.w3.org/1999/xlink" x="0px" y="0px"
	 viewBox="0 0 24 24" style="enable-background:new 0 0 24 24;" xml:space="preserve">
<style type="text/css">
	.st0{fill:#09BBC0;}
	.st1{fill:#FFFFFF;}
</style>
<g>
	<g id="g3261" transform="translate(-240.43605,-240.43605)">
		<path class="st0" d="M252.44,261.38c-2.39,0-4.64-0.93-6.33-2.62c-1.69-1.69-2.62-3.94-2.62-6.33c0-2.39,0.93-4.64,2.62-6.33
			c1.69-1.69,3.94-2.62,6.33-2.62c2.39,0,4.64,0.93,6.33,2.62c1.69,1.69,2.62,3.94,2.62,6.33c0,2.39-0.93,4.64-2.62,6.33
			C257.07,260.45,254.83,261.38,252.44,261.38z M252.44,245.55c-3.8,0-6.89,3.09-6.89,6.89c0,3.8,3.09,6.89,6.89,6.89
			c3.8,0,6.89-3.09,6.89-6.89C259.33,248.64,256.24,245.55,252.44,245.55z"/>
	</g>
	<path id="path3267" class="st0" d="M10.95,5.87v1.32c-0.53,0-2.93,0.68-2.93,2.86c0,1.94,1.73,2.47,2.93,2.64l0,2.19
		c-0.88-0.25-1.04-0.92-1.16-1.48H7.87c0.12,2.18,2.03,3.19,3.08,3.35v1.34h1.83v-1.32c1.45-0.08,3.16-1.33,3.16-3.04
		c0-1.96-1.71-2.52-3.16-2.67V9.04c0.57,0.04,1.02,0.61,1.07,1.19h1.9c0-1.95-1.77-2.97-2.99-3.04V5.87H10.95z M10.96,9.06v1.66
		C9.67,10.7,9.64,9.29,10.96,9.06z M12.8,12.99c1.6,0.04,1.77,1.63,0,1.89L12.8,12.99z"/>
	<path id="path3277" class="st1" d="M12.8,14.88l0-1.89"/>
</g>
</svg>
