<?xml version="1.0" encoding="utf-8"?>
<!-- Generator: Adobe Illustrator 27.7.0, SVG Export Plug-In . SVG Version: 6.00 Build 0)  -->
<svg version="1.1" id="圖層_1" xmlns="http://www.w3.org/2000/svg" xmlns:xlink="http://www.w3.org/1999/xlink" x="0px" y="0px"
	 viewBox="0 0 24 24" style="enable-background:new 0 0 24 24;" xml:space="preserve">
<style type="text/css">
	.st0{fill:#09BBC0;}
	.st1{fill:none;stroke:#09BBC0;stroke-width:3;stroke-miterlimit:10;}
</style>
<path id="path3267" class="st0" d="M11.26,6.58V7.8c-0.49,0-2.7,0.63-2.7,2.63c0,1.78,1.59,2.27,2.7,2.43l0,2.01
	c-0.81-0.23-0.95-0.85-1.06-1.36H8.42c0.11,2.01,1.87,2.94,2.83,3.08v1.23h1.68V16.6c1.33-0.07,2.91-1.22,2.91-2.8
	c0-1.81-1.57-2.32-2.91-2.46V9.5c0.53,0.04,0.94,0.56,0.98,1.09h1.75c0-1.79-1.63-2.73-2.75-2.8V6.58H11.26z M11.27,9.52v1.53
	C10.08,11.03,10.06,9.73,11.27,9.52z M12.96,13.14c1.47,0.04,1.63,1.5,0,1.74L12.96,13.14z"/>
<circle class="st1" cx="12.14" cy="12" r="8.84"/>
</svg>
