<?xml version="1.0" encoding="utf-8"?>
<!-- Generator: Adobe Illustrator 27.7.0, SVG Export Plug-In . SVG Version: 6.00 Build 0)  -->
<svg version="1.1" id="圖層_1" xmlns="http://www.w3.org/2000/svg" xmlns:xlink="http://www.w3.org/1999/xlink" x="0px" y="0px"
	 viewBox="0 0 24 24" style="enable-background:new 0 0 24 24;" xml:space="preserve">
<style type="text/css">
	.st0{fill:#09BBC0;}
</style>
<path class="st0" d="M18.87,12.07l-6,9.47c-0.19,0.3-0.52,0.47-0.87,0.46c-0.09,0.01-0.19,0.01-0.28,0c-0.44-0.13-0.74-0.54-0.72-1
	v-6H6.82c-1.1,0-2-0.9-2-2c0-0.38,0.11-0.75,0.31-1.07l6-9.47c0.23-0.4,0.71-0.59,1.15-0.46c0.44,0.13,0.74,0.54,0.72,1v6h4.18
	c1.1,0,2,0.9,2,2C19.18,11.38,19.07,11.75,18.87,12.07z"/>
</svg>
