<?xml version="1.0" encoding="utf-8"?>
<!-- Generator: Adobe Illustrator 27.7.0, SVG Export Plug-In . SVG Version: 6.00 Build 0)  -->
<svg version="1.1" id="圖層_1" xmlns="http://www.w3.org/2000/svg" xmlns:xlink="http://www.w3.org/1999/xlink" x="0px" y="0px"
	 viewBox="0 0 32 32" style="enable-background:new 0 0 32 32;" xml:space="preserve">
<style type="text/css">
	.st0{fill:none;}
</style>
<g id="Layer_2">
	<path d="M26,26H6c-1.66,0-3-1.34-3-3V9c0-1.66,1.34-3,3-3h20c1.66,0,3,1.34,3,3v14C29,24.66,27.66,26,26,26z M6,8
		C5.45,8,5,8.45,5,9v14c0,0.55,0.45,1,1,1h20c0.55,0,1-0.45,1-1V9c0-0.55-0.45-1-1-1H6z"/>
	<path d="M14,22H8c-0.55,0-1-0.45-1-1s0.45-1,1-1h6c0.55,0,1,0.45,1,1S14.55,22,14,22z"/>
	<path d="M28,13H4c-0.55,0-1-0.45-1-1s0.45-1,1-1h24c0.55,0,1,0.45,1,1S28.55,13,28,13z"/>
</g>
<g id="frame">
	<rect y="0" class="st0" width="32" height="32"/>
</g>
</svg>
