<?xml version="1.0" encoding="utf-8"?>
<!-- Generator: Adobe Illustrator 27.7.0, SVG Export Plug-In . SVG Version: 6.00 Build 0)  -->
<svg version="1.1" id="Layer_1" xmlns="http://www.w3.org/2000/svg" xmlns:xlink="http://www.w3.org/1999/xlink" x="0px" y="0px"
	 viewBox="0 0 16 16" style="enable-background:new 0 0 16 16;" xml:space="preserve">
<style type="text/css">
	.st0{fill-rule:evenodd;clip-rule:evenodd;}
</style>
<path d="M5,16h6c1.1,0,2-0.9,2-2V2c0-1.11-0.9-2-2-2H5C3.89,0,3,0.89,3,2v12C3,15.1,3.89,16,5,16z M4,2h8v12H4V2z"/>
<path class="st0" d="M5.25,5.26c0-0.15,0.12-0.28,0.28-0.28h1.49v0.55H5.8v1.21H5.25V5.26z M10.2,5.54H8.99V4.99h1.49
	c0.15,0,0.28,0.12,0.28,0.28v1.49H10.2V5.54z M5.8,9.94V8.73H5.25v1.49c0,0.15,0.12,0.28,0.28,0.28h1.49V9.94H5.8z M10.2,9.94V8.73
	h0.55v1.49c0,0.15-0.12,0.28-0.28,0.28H8.99V9.94H10.2z"/>
<path class="st0" d="M10.75,8.01h-5.5V7.46h5.5V8.01z"/>
</svg>
