<?xml version="1.0" encoding="utf-8"?>
<!-- Generator: Adobe Illustrator 27.7.0, SVG Export Plug-In . SVG Version: 6.00 Build 0)  -->
<svg version="1.1" id="Layer_1" xmlns="http://www.w3.org/2000/svg" xmlns:xlink="http://www.w3.org/1999/xlink" x="0px" y="0px"
	 viewBox="0 0 447.73 618.18" style="enable-background:new 0 0 447.73 618.18;" xml:space="preserve">
<style type="text/css">
	.st0{fill-rule:evenodd;clip-rule:evenodd;fill:#2F2F2F;}
</style>
<path class="st0" d="M89.17,543.42c0-144.79,0-289.67,0-434.46c0-11.47,9.33-20.82,20.68-20.82c21.42,0,42.85,0,64.27,0
	c0-8.71,0-17.53,0-26.34c0-4.25,3.5-7.75,7.74-7.75c28,0,56,0,84,0c4.24,0,7.74,3.51,7.74,7.75c0,8.82,0,17.63,0,26.34
	c21.42,0,42.85,0,64.27,0c11.35,0,20.68,9.35,20.68,20.82c0,144.78,0,289.67,0,434.46c0,11.36-9.33,20.71-20.68,20.71
	c-76.04,0-151.98,0-228.02,0C98.5,564.13,89.17,554.79,89.17,543.42L89.17,543.42z M112.08,541.19c0-143.3,0-286.7,0-430.1
	c74.56,0,149.01,0,223.57,0c0,143.4,0,286.8,0,430.1C261.09,541.19,186.64,541.19,112.08,541.19L112.08,541.19z"/>
<path class="st0" d="M135.77,266.32v183.98v48.23v17.53c64.59,0,111.6,0,176.19,0V413.97v-48.23V191.11L135.77,266.32z
	 M278.7,405.89c0,20.18-15.8,36.75-35.53,38.03v28.36h-42v-28.36c-19.73-1.27-35.53-17.85-35.53-38.03v-37.92h28v-49.18h11.24v49.18
	h34.57v-49.18h11.24v49.18h28V405.89z"/>
</svg>
