<?xml version="1.0" encoding="utf-8"?>
<!-- Generator: Adobe Illustrator 27.7.0, SVG Export Plug-In . SVG Version: 6.00 Build 0)  -->
<svg version="1.1" id="圖層_1" xmlns="http://www.w3.org/2000/svg" xmlns:xlink="http://www.w3.org/1999/xlink" x="0px" y="0px"
	 viewBox="0 0 97.78 74.44" style="enable-background:new 0 0 97.78 74.44;" xml:space="preserve">
<style type="text/css">
	.st0{fill:#5A5B5B;}
	.st1{fill:#22B1B5;}
	.st2{fill:none;stroke:#22B1B5;stroke-width:4;stroke-miterlimit:10;}
</style>
<path class="st0" d="M40.21,44.99h-18c-1.66,0-3,1.32-3,2.95c0,1.63,1.34,2.95,3,2.95h18c1.66,0,3-1.32,3-2.95
	C43.21,46.31,41.86,44.99,40.21,44.99z"/>
<g>
	<path class="st1" d="M81.72,46.63c-0.02,0.02-0.03,0.03-0.05,0.05l-8.41,10.71l-5.07-5.07c-0.73-0.68-1.88-0.64-2.57,0.09
		c-0.65,0.7-0.65,1.78,0,2.48l6.4,6.41c0.71,0.71,1.86,0.71,2.57,0c0.02-0.02,0.03-0.03,0.04-0.05l9.66-12.08
		c0.69-0.73,0.66-1.88-0.06-2.57C83.53,45.92,82.41,45.94,81.72,46.63z"/>
	<path class="st1" d="M73.32,62.33c-0.62,0-1.2-0.24-1.63-0.68l-6.41-6.41c-0.84-0.9-0.84-2.28-0.01-3.17
		c0.42-0.45,0.99-0.71,1.61-0.74c0.62-0.02,1.21,0.2,1.66,0.62l4.68,4.68l8.15-10.37c0.9-0.89,2.31-0.9,3.23-0.03
		c0.92,0.88,0.96,2.35,0.08,3.27l-9.72,12.14C74.52,62.08,73.94,62.33,73.32,62.33C73.32,62.33,73.32,62.33,73.32,62.33z
		 M66.96,52.33c-0.02,0-0.03,0-0.05,0c-0.35,0.01-0.68,0.16-0.92,0.42c-0.47,0.5-0.47,1.29,0,1.79l6.39,6.4
		c0.25,0.25,0.58,0.38,0.93,0.38h0c0.35,0,0.68-0.14,0.93-0.39l9.67-12.08c0.53-0.56,0.51-1.39-0.02-1.89
		c-0.52-0.49-1.33-0.49-1.84,0.02l-0.35-0.35l0.34,0.37L73.3,58.14l-5.47-5.47C67.61,52.46,67.29,52.33,66.96,52.33z"/>
</g>
<path class="st0" d="M52.14,56.78H16.21c-1.66,0-3-1.32-3-2.95V24.37H79.2v6.06c1.94,0.35,3.78,0.95,5.52,1.75
	c0.16,0.04,0.32,0.06,0.48,0.1v-19.7c0-4.88-4.03-8.84-9-8.84H16.21c-4.97,0-9,3.96-9,8.84v41.25c0,4.88,4.03,8.84,9,8.84h37.88
	C53.18,60.83,52.52,58.86,52.14,56.78z M13.21,12.58c0-1.63,1.34-2.95,3-2.95H76.2c1.66,0,3,1.32,3,2.95v5.89H13.21V12.58z"/>
<circle class="st2" cx="74.98" cy="53.12" r="17.59"/>
</svg>
